<svg xmlns="http://www.w3.org/2000/svg" xml:space="preserve" width="1500" height="1500" fill="#fff" stroke="#fff" data-id="lg_IOESbBqKk3kntLTmy9" data-version="1" viewBox="0 0 1500 1500"><path fill="#000" stroke="transparent" d="M0 0h1500v1500H0z"/><g data-padding="20"><g transform="translate(-578.546 -582.543)scale(1.73087)"><rect width="586.714" height="456.091" x="93.549" y="161.291" fill="none" rx="0" ry="0" transform="matrix(.95 0 0 .95 400 400)"/><path fill="#8a8a8a" d="m610.517 572.545.817.21q5.158 3.096 8.968 6.905 3.818 3.81 7.01 8.037 3.193 4.228 5.055 9.177 7.828 18.962-13.604 42.465-9.073 9.9-20.416 16.91 2.888 2.062 5.462 2.983 2.585.931 7.325 3.506t6.185 9.69q1.443 7.115-.723 15.98t-7.837 18.24q-5.672 9.385-14.735 16.804-20.615 17.11-47.832 14.43-3.914 0-4.95-.617-1.026-.617-1.643-1.035-.618-.409-2.68-.618-5.158 4.123-11.751 5.158-6.602 1.026-12.473-1.035-5.88-2.06-9.9-7.01t-4.018-12.988q.618-5.358 2.062-8.455-.617-1.852-.617-4.53 7.01-37.317 13.195-57.105 12.578-39.378 27.208-59.366 11.96-16.91 33.193-21.86 20.406-4.74 36.699 4.124m-64.942 143.896h.826q2.47-.617 4.228-.313 1.748.313 4.227-.095 5.976-.627 16.074-7.43 6.394-6.383 6.802-12.568.418-6.184-1.852-7.942-2.271-1.748-6.08-1.748-3.82 0-8.455 1.13-4.636 1.131-8.968 1.34v.418q-1.026 4.123-2.062 7.21-1.026 3.098-1.852 5.976-1.853 6.802-2.888 14.022m39.168-107.198q-6.184-.826-13.395 9.69-4.541 6.593-7.011 19.998 4.323-1.862 8.55-3.202t7.942-2.983q9.073-3.923 12.987-9.48 4.53-5.368 2.888-9.073-2.48-3.297-8.047-5.985-1.643 1.444-3.914 1.035m-2.47-.826h-.617Zm68.856 31.55q4.332-3.088 10.725-1.445 1.235.21 2.47.21 4.54-9.273 15.666-9.69 2.888-.21 8.046-1.027 5.149-.826 12.474.41 7.315 1.234 12.882 4.331 12.16 6.593 14.639 18.962 4.94 18.145-1.444 39.586-6.802 23.703-23.094 37.924-7.42 6.603-15.666 8.351-8.246 1.757-14.84 1.957-6.601.21-12.064.104-5.462-.104-10.611-1.13-11.134-2.27-18.354-10.517-8.446-9.272-7.211-28.86.827-17.319 8.759-34.942 7.942-17.622 17.623-24.225m36.29 41.44q-5.16 1.652-9.69 1.443-2.271 2.271-4.02 4.845-1.756 2.575-4.644 4.741-2.88 2.166-2.88 1.748-3.504 4.95-5.775 10.212-2.27 5.254 0 10.612 8.246.826 12.16-.409 3.924-1.244 7.325-4.74 3.4-3.506 5.253-8.246 3.715-8.873 2.27-20.207m71.726-41.439q4.332-3.087 10.725-1.444 1.236.21 2.47.21 4.532-9.273 15.666-9.69 2.888-.21 8.047-1.027 5.149-.826 12.464.41 7.324 1.234 12.89 4.331 12.16 6.593 14.63 18.962 4.95 18.145-1.443 39.586-6.802 23.703-23.085 37.924-7.42 6.603-15.665 8.351-8.246 1.757-14.85 1.957-6.592.21-12.054.104-5.463-.104-10.621-1.13-11.125-2.27-18.345-10.517-8.455-9.272-7.21-28.86.817-17.319 8.759-34.942 7.932-17.622 17.622-24.225m36.28 41.44q-5.148 1.652-9.68 1.443-2.27 2.271-4.028 4.845-1.748 2.575-4.636 4.741t-2.888 1.748q-3.505 4.95-5.766 10.212-2.271 5.254 0 10.612 8.246.826 12.16-.409 3.914-1.244 7.315-4.74 3.4-3.506 5.263-8.246 3.705-8.873 2.26-20.207m98.762-107.616.2-.827 1.86-1.862q2.262-5.358 4.95-6.384 1.435-.418 3.706-1.035 2.27-.618 5.975-3.088 1.444-2.888 5.985-2.574 4.532.304 8.968 2.878 4.427 2.584 7.21 7.116 2.784 4.531 1.34 9.376t-2.365 7.22q-.931 2.366-1.862 4.427-.921 2.062-2.261 4.646-1.34 2.574-3.401 6.906l-6.802 14.222q-1.035 2.68-1.757 3.087-.722.418-1.34 1.444 1.852-.408 3.097-.617 1.235-.209 2.47-.409 2.888-.418 6.593-.826 2.27.408 3.923.408h2.879q2.48 0 5.985 1.34t4.53 4.645q1.037 3.297.21 6.698t-3.296 6.29q-2.48 2.887-6.394 3.086-17.936 4.95-25.564 5.358l-1.235 1.444v.21q-2.062 4.95-4.437 12.473-2.365 7.524-5.15 16.283t-5.67 18.145q-2.888 9.376-5.976 18.04-9.9 29.061-14.43 31.54-1.653.817-3.401 1.131-1.758.313-1.957.513-7.22-.409-11.96-2.888-4.741-2.47-6.394-4.74-1.644-2.262-.817-5.15 3.914-35.872 15.665-78.546-4.123 0-5.776.827-3.087 1.653-7.42 1.852h-.208q-3.297-.199-5.976-3.087t-3.296-6.603q-.618-3.705 1.235-7.628 1.852-3.914 7.42-6.185 6.602-1.852 9.69-3.087 5.975-2.47 9.993-3.505 4.028-1.026 4.54-1.34.514-.313.723-.513.618-.418 3.088-.418 1.244-5.975 2.48-12.16 1.234-6.184 3.087-12.578 4.123-14.839 11.343-25.555m108.434 159.144q-8.037 6.593-19.067 9.994t-22.163 3.61-20.824-2.679-15.257-9.072q-6.593-7.01-4.532-14.013 1.036-2.888 3.61-4.54 2.575-1.644 6.29-.827 2.47.21 3.6-1.34 1.14-1.539 1.966-3.496.817-1.966 1.853-3.714 1.026-1.758 3.296-1.758 36.28 1.036 37.725-6.384-2.47-2.27-6.08-3.923-3.61-1.644-7.315-3.297-9.073-4.123-12.17-9.072-3.914-2.062-5.975-9.89-1.026-3.505-1.026-7.22 0-3.705 1.235-6.802-.618-8.037 9.89-17.727 2.887-2.679 7.22-5.776 4.33-3.087 12.986-5.975t17.214-4.228q8.55-1.34 15.456-.92 6.907.407 9.9 3.295 2.992 2.888 4.74 7.21 1.757 4.333 1.13 8.456-1.643 9.281-15.247 12.777-17.11 2.48-16.492 4.541 0 .41-1.444 1.026 15.875 10.925 22.059 21.442 8.446 14.43 2.47 32.157 1.036 5.776-10.307 14.43-2.68 2.062-4.741 3.715m-242.906 39.54q7.315-.21 14.326-.932t14.64-1.444q7.628-.713 15.048-1.34 7.419-.617 13.395-.408 13.404.21 13.404 4.531 5.149 16.293-7.22 24.738-4.94 3.306-16.283 4.95-11.334 1.653-15.875 1.235-6.393-.817-10.098-.817-2.68 4.531-8.037 12.464-5.367 7.942-10.516 15.78l-3.915 8.863q3.705-5.368 19.37-7.01 15.258-1.654 24.948 2.27 19.38 8.863 21.233 27.207 1.035 11.752-5.976 31.331-5.358 14.85-17.936 26.8-10.925 10.516-24.33 16.083-26.59 11.334-58.54 1.653-5.983-1.653-9.793-5.472-3.82-3.809-5.462-8.34-1.653-4.542-1.036-9.178.618-4.636 3.924-7.932 7.419-7.838 23.085-4.332 14.639 3.087 20.615 1.13t10.098-5.87q4.123-3.924 6.498-8.142 2.366-4.228 3.4-6.603 1.027-2.365 1.445-4.845 1.026-6.593-2.68-8.246-2.27-.826-7.627 0-5.358.827-11.961 1.862-6.593 1.026-13.395 1.853t-11.751 0q-11.134-1.852-6.802-13.604-.21-.617.199.2.418.826.418.21-5.567-3.507-5.567-11.544 3.297-9.48 8.142-18.658t8.246-15.466q3.4-6.28 5.358-9.89t3.819-7.524q-1.036.41-.931-.313t.826-1.957 1.644-2.783q.93-1.549 1.548-2.784-2.68-8.863 6.185-13.813 6.602-3.705 13.917-3.914m-21.546 23.085q1.036-1.643 1.758-2.878.722-1.245-.21-.827-.93.41-1.13 1.548-.21 1.131-.418 2.157m69.065-22.676q4.74.418 5.149-.2.418-.617-5.15.2m-52.771 94.012h-.418q-.827-.21.418 0"/></g><path fill="transparent" stroke="transparent" stroke-width="1.795" d="M250 361.31h1000v777.38H250z"/></g></svg>